<?xml version="1.0" encoding="iso-8859-1"?>
<!-- Uploaded to: SVG Repo, www.svgrepo.com, Generator: SVG Repo Mixer Tools -->
<svg fill="#000000" height="800px" width="800px" version="1.1" id="Layer_1" xmlns="http://www.w3.org/2000/svg" xmlns:xlink="http://www.w3.org/1999/xlink" 
	 viewBox="0 0 512 512" xml:space="preserve">
<g>
	<g>
		<g>
			<path d="M85.432,411.629H40.162c-4.466,0-8.084,3.618-8.084,8.084c0,4.466,3.618,8.084,8.084,8.084h45.269
				c4.466,0,8.084-3.618,8.084-8.084C93.516,415.247,89.896,411.629,85.432,411.629z"/>
			<path d="M471.838,411.629h-45.269c-4.466,0-8.084,3.618-8.084,8.084c0,4.466,3.618,8.084,8.084,8.084h45.269
				c4.466,0,8.084-3.618,8.084-8.084C479.922,415.247,476.303,411.629,471.838,411.629z"/>
			<path d="M490.981,115.637h-21.435h-5.392c-4.466,0-8.084,3.619-8.084,8.084c0,4.466,3.618,8.084,8.084,8.084h5.392h21.435
				c2.674,0,4.851,2.176,4.851,4.851v205.151H264.084V131.805h83.659h89.466c4.466,0,8.084-3.619,8.084-8.084
				c0-4.466-3.618-8.084-8.084-8.084h-89.466H256H21.019C9.429,115.637,0,125.066,0,136.656v213.236v21.492
				c0,11.59,9.429,21.019,21.019,21.019H256h234.981c11.59,0,21.019-9.429,21.019-21.019v-21.492V136.656
				C512,125.066,502.571,115.637,490.981,115.637z M247.916,341.807h-27.365c-4.466,0-8.084,3.619-8.084,8.084
				s3.618,8.084,8.084,8.084h27.365v18.258H21.019c-2.674,0.001-4.851-2.175-4.851-4.849v-13.408h177.795
				c4.466,0,8.084-3.618,8.084-8.084c0-4.466-3.618-8.084-8.084-8.084H16.168V136.656c0-2.674,2.176-4.851,4.851-4.851h226.897
				V341.807z M495.832,371.384c0,2.674-2.176,4.851-4.851,4.851H264.084v-18.258h231.747V371.384z"/>
			<path d="M286.181,209.934v53.787c0,4.466,3.619,8.084,8.084,8.084c4.466,0,8.084-3.618,8.084-8.084v-53.787
				c0-4.466-3.618-8.084-8.084-8.084C289.8,201.85,286.181,205.468,286.181,209.934z"/>
			<path d="M217.735,271.805c4.466,0,8.084-3.618,8.084-8.084v-53.787c0-4.466-3.619-8.084-8.084-8.084s-8.084,3.619-8.084,8.084
				v53.787C209.65,268.187,213.269,271.805,217.735,271.805z"/>
			<path d="M8.084,100.371h495.832c4.466,0,8.084-3.618,8.084-8.084c0-4.466-3.618-8.084-8.084-8.084H8.084
				C3.619,84.203,0,87.821,0,92.287C0,96.753,3.619,100.371,8.084,100.371z"/>
			<path d="M43.32,200.086c2.068,0,4.137-0.789,5.716-2.368l29.048-29.049c3.157-3.157,3.157-8.276-0.001-11.432
				c-3.156-3.156-8.275-3.157-11.432,0.001l-29.048,29.049c-3.157,3.157-3.157,8.276,0.001,11.432
				C39.182,199.297,41.251,200.086,43.32,200.086z"/>
			<path d="M64.557,225.374c1.579,1.578,3.649,2.367,5.717,2.367s4.138-0.789,5.717-2.367l52.958-52.958
				c3.157-3.158,3.157-8.276,0-11.433c-3.158-3.156-8.276-3.156-11.434,0l-52.958,52.958C61.4,217.099,61.4,222.217,64.557,225.374z
				"/>
			<path d="M46.664,231.834l-2.877,2.877c-3.157,3.158-3.157,8.276,0,11.433c1.579,1.578,3.649,2.367,5.717,2.367
				c2.068,0,4.138-0.789,5.717-2.367l2.877-2.877c3.157-3.158,3.157-8.276,0-11.433C54.94,228.678,49.822,228.678,46.664,231.834z"
				/>
		</g>
	</g>
</g>
</svg>